<svg xmlns="http://www.w3.org/2000/svg" viewBox="0 0 460.24 521"><defs><style>.cls-1{fill:#fff}.cls-2{fill:url(#linear-gradient)}.cls-3{mask:url(#mask)}.cls-4{fill:#d2816d}.cls-5,.cls-9{fill:none;stroke-miterlimit:10}.cls-5{stroke:#a6a2a1;opacity:.3}.cls-6{opacity:.3;fill:#a6a2a1}.cls-7{fill:#c26a56}.cls-8{fill:#9fb0b3}.cls-9{stroke:#ff6c5d}.cls-10{fill:#975949}.cls-11{fill:#8d5345}.cls-12{fill:#804d3f}.cls-13{fill:#bb6753}.cls-14{fill:#a15f4f}.cls-15{fill:#c27967}.cls-16{fill:#ff6c5d}.cls-17{opacity:.55;fill:url(#linear-gradient-2)}</style><linearGradient id="linear-gradient" x1="230.12" y1="-10.19" x2="230.12" y2="452.29" gradientUnits="userSpaceOnUse"><stop offset=".09" stop-color="#faeaa9" stop-opacity=".9"/><stop offset=".23" stop-color="#fae6ab" stop-opacity=".92"/><stop offset=".39" stop-color="#fad9b3" stop-opacity=".96"/><stop offset=".5" stop-color="#facdb9"/><stop offset="1" stop-color="#d0adcd"/></linearGradient><mask id="mask" x="0" y="-.79" width="460.24" height="521.78" maskUnits="userSpaceOnUse"><path class="cls-1" d="M229.02.01L63.96-.79 0 382.25 228.54 521l231.69-136.89L415.9.01H229.02z"/></mask><linearGradient id="linear-gradient-2" x1="230.12" y1="252.2" x2="230.12" y2="627.49" gradientUnits="userSpaceOnUse"><stop offset="0" stop-color="#fff" stop-opacity="0"/><stop offset=".4" stop-color="#fff" stop-opacity=".4"/><stop offset="1" stop-color="#fff"/></linearGradient></defs><title>ETHSf</title><g id="Layer_2" data-name="Layer 2"><g id="Layer_1-2" data-name="Layer 1"><path class="cls-2" d="M460.24 384.11l-41.93 24.78-6.89 4.07-.11.07-2.76 1.62-17.57 10.38-2.75 1.63-17.05 10.07-2.75 1.63-16.13 9.52-2.76 1.63-14.21 8.4-2.76 1.63-13.13 7.76-27.81 16.43-9.16 5.42-8.12 4.79-8.64 5.1-1.49.89-10.34 6.1L228.55 521l-19.81-12.03-10.34-6.27-3.05-1.85-8.65-5.25-8.11-4.93-8.46-5.13-27.8-16.89-11.05-6.7-2.76-1.68-14.21-8.62-2.76-1.68-16.13-9.79-2.75-1.68L77 428.99l-2.75-1.66-17.58-10.67-2.75-1.68-.44-.27-6.72-4.07L0 382.25l139.24-232.37 3.61-6.04 13.85-23.12 12.03-20.08 1.4-2.34 1.31-2.17 2.36-3.95 6.28-10.49 2.72-4.52 1.08-1.83.44-.7 2.69-4.5.78-1.31 1.17-1.95L229.03 0l40.26 66.88 1.17 1.95.8 1.31 2.7 4.5.43.7 4.58 7.61 2.71 4.52 6.27 10.41 2.37 3.94 1.31 2.18 1.07 1.77 12.35 20.52 20.47 34 4.83 8.03 129.89 215.79z"/><g class="cls-3"><path class="cls-4" d="M156.71 58.23l2.61-4.24h8.19l2.62 4.24h-13.42zm134.92-.01l2.62-4.24h8.19l2.61 4.24h-13.42z"/><path class="cls-5" d="M178.59 490.67V197.28m8.12 298.32V253.13m8.64 247.72V303.41m87.12 185.74V197.28m-8.12 296.65v-240.8m-8.64 245.91V303.41M165.35 59.08s17 235.37 40.59 271.32m90.61-271.32S279.56 294.45 256 330.4"/><path class="cls-6" d="M261.06 453.17v-61.33l-.42-.43-1.77-1.84v-54.29l-1-1.61v-5.46h-3v5.46l-1 1.61h-6.94l-1.21.87v2.3h-28.84v-2.3l-1.22-.87h-6.92l-1-1.61v-5.46h-3v5.46l-1 1.61v54.29l-2.18 2.27v61.33L198.4 457v45.7l10.33 6.3v-25.72h1V476h.9s.24-7.14 6.2-8.28v-.79h3.37v-1h22.12v1h3.37v.79c6 1.14 6.19 8.28 6.19 8.28h.92v7.27h1V506l10.33-6.1V457zm-52.32-65.09v-17.34h1v-7.27h.9a12 12 0 0 1 .59-3c.08-.22.16-.47.26-.71a8.82 8.82 0 0 1 1.5-2.45 6.67 6.67 0 0 1 1.61-1.31.07.07 0 0 1 .05 0 6.66 6.66 0 0 1 2.19-.8v-.8h3.37v-1h22.12v1h3.37v.8a6.79 6.79 0 0 1 2.19.8 6.67 6.67 0 0 1 1.61 1.31 8.56 8.56 0 0 1 1.51 2.45c.11.24.18.49.26.71a11.6 11.6 0 0 1 .58 3h.92v7.27h1v17.34h-7.27v1.48h-5v1.3h-20.43v-1.3h-5v-1.48zm45.15 54.07h-7.39v1.5h-5v1.3h-20.43v-1.3h-5v-1.5h-7.38v-19.07h1v-7.27h.9s.24-7.14 6.2-8.27v-.79h3.37v-1h22.12v1h3.37v.79c6 1.13 6.19 8.27 6.19 8.27h.92v7.27h1z"/><path class="cls-7" d="M159.33 39.47h8.18v14.67h-8.18z"/><path class="cls-8" d="M167.51 39.47l-4.11-3.94-4.07 3.94h8.18z"/><path class="cls-4" d="M167.51 39.47l-4.11-3.94-4.07 3.94h8.18z"/><path class="cls-7" d="M294.25 39.32h8.18v14.67h-8.18z"/><path class="cls-8" d="M302.43 39.32l-4.1-3.94-4.08 3.94h8.18z"/><path class="cls-4" d="M170.12 66.88h121.51v1.93H170.12zm132.31-27.56l-4.1-3.94-4.08 3.94h8.18z"/><path class="cls-9" d="M335.33 457.91V192.09m-2.76 267.45V181.59m19.73 266.29V247.85m-2.76 201.66V237.34m21.64 199.39V301.64m-2.75 136.72V291.13m22.55 133.9v-71.57m-2.75 73.2v-83.7m23.08 70.07v-9.42m-2.76 11.04v-21.54m-73.22 64.8V192.09m-2.76 267.45V181.59m19.73 266.29V247.85m-2.76 201.66V237.34m21.64 199.39V301.64m-2.75 136.72V291.13m22.55 133.9v-71.57m-2.75 73.2v-83.7m23.08 70.07v-9.42m-2.76 11.04v-21.54m-280.03 67.16V192.09m2.76 269.86V181.59m-19.73 268.38V247.85m2.76 203.8V237.34M92.67 438.5V301.64m2.75 138.54V291.13m-21.17 136.2v-73.87M77 428.99v-86.03m-23.08 72.02v-11.37m2.75 13.05v-23.55"/><path class="cls-10" transform="rotate(-90 185.62 390.83)" d="M184.33 375.33h2.59v31h-2.59z"/><path class="cls-11" d="M170.12 416.51h5.25s.63-19.2 16.63-22.25v-2.13h-21.88z"/><path class="cls-10" transform="rotate(-90 276.14 390.83)" d="M274.84 375.33h2.59v31h-2.59z"/><path class="cls-11" d="M291.63 416.51h-5.25s-.62-19.19-16.66-22.25v-2.13h21.91z"/><path class="cls-12" d="M170.12 389.54h31v.97h-31zm90.52 0h31v.97h-31zm-90.52 2.6h21.91v.97h-21.91z"/><path class="cls-12" transform="rotate(-180 280.68 392.67)" d="M269.72 392.19h21.91v.97h-21.91z"/><path class="cls-4" d="M150.82 213.56l5.88-5.24h13.42v5.24h-19.3z"/><path class="cls-7" d="M150.82 213.57h19.3v140.51h-19.3z"/><path class="cls-4" d="M310.94 213.56l-5.89-5.24h-13.42v5.24h19.31z"/><path class="cls-7" d="M291.63 213.56h19.3v140.28h-19.3z"/><path class="cls-4" d="M142.33 364.42l8.49-10.34h19.3v10.36l-27.79-.02z"/><path class="cls-7" d="M170.13 364.43v121.11l-27.8-16.89V364.42l27.8.01z"/><path class="cls-4" d="M319.43 364.19l-8.49-10.34h-19.31v10.36l27.8-.02z"/><path class="cls-7" d="M319.44 364.2v103.1l-27.81 16.43V364.21l27.81-.01z"/><path class="cls-13" d="M170.12 66.88h121.51v40.14H170.12zm0 141.44h121.51v40.16H170.12zm0 145.53h121.51v35.69H170.12z"/><path class="cls-10" transform="rotate(-90 185.625 108.425)" d="M184.22 92.93h2.8v31h-2.8z"/><path class="cls-11" d="M170.13 134.85h5.12s.61-19.7 16.27-22.83v-2.19h-21.4z"/><path class="cls-10" transform="rotate(-90 185.62 249.77)" d="M184.33 234.27h2.59v31h-2.59z"/><path class="cls-11" d="M170.12 275.45h5.25s.63-19.2 16.63-22.25v-2.13h-21.88z"/><path class="cls-10" transform="rotate(-90 276.14 249.77)" d="M274.84 234.27h2.59v31h-2.59z"/><path class="cls-11" d="M291.63 275.45h-5.25s-.62-19.19-16.66-22.25v-2.13h21.91z"/><path class="cls-10" d="M169.23 200.43h20.76v5.26h-20.76z"/><path class="cls-7" d="M169.23 205.69h34.1v2.62h-34.1z"/><path class="cls-10" transform="rotate(-180 281.25 203.06)" d="M270.87 200.43h20.76v5.26h-20.76z"/><path class="cls-7" transform="rotate(-180 274.58 207.005)" d="M257.53 205.69h34.1v2.62h-34.1z"/><path class="cls-14" d="M170.13 68.82h121.51v1.31H170.13z"/><path class="cls-12" d="M170.12 107.03h31v.97h-31zm0 141.44h31v.97h-31zm90.52 0h31v.97h-31zm-90.52-43.74H190v.97h-19.88zm100.75 0h20.74v.97h-20.74z"/><path class="cls-10" d="M169.23 345.96h20.76v5.26h-20.76z"/><path class="cls-7" d="M169.23 351.23h34.1v2.62h-34.1z"/><path class="cls-10" transform="rotate(-180 281.25 348.595)" d="M270.87 345.96h20.76v5.26h-20.76z"/><path class="cls-7" transform="rotate(-180 274.58 352.54)" d="M257.53 351.23h34.1v2.62h-34.1z"/><path class="cls-12" d="M170.12 350.26H190v.97h-19.88zm100.75 0h20.74v.97h-20.74zM170.12 109.82h21.4v.97h-21.4z"/><path class="cls-14" d="M170.13 210.27h121.51v1.31H170.13z"/><path class="cls-4" d="M170.12 208.32h121.51v1.93H170.12z"/><path class="cls-14" d="M170.12 68.87h1.31v38.16h-1.31zm0 142.05h1.31v37.54h-1.31zm0 145.32h1.31v33.29h-1.31zm120.18 0h1.31v33.29h-1.31zm.03-145.97h1.31v38.21h-1.31z"/><path class="cls-12" d="M170.12 107.07h1.31v27.78h-1.31z"/><path class="cls-10" transform="rotate(-90 276.14 108.47)" d="M274.74 92.97h2.8v31h-2.8z"/><path class="cls-11" d="M291.63 134.89h-5.12s-.61-19.7-16.27-22.83v-2.19h21.4z"/><path class="cls-12" transform="rotate(-180 276.135 107.555)" d="M260.64 107.07h31v.97h-31z"/><path class="cls-12" transform="rotate(-180 280.935 110.355)" d="M270.23 109.87h21.4v.97h-21.4z"/><path class="cls-12" d="M170.12 251.08h21.91v.97h-21.91z"/><path class="cls-12" transform="rotate(-180 280.68 251.605)" d="M269.72 251.12h21.91v.97h-21.91z"/><path class="cls-12" transform="rotate(-180 290.98 121.005)" d="M290.32 107.12h1.31v27.78h-1.31z"/><path class="cls-14" d="M290.32 68.87h1.31v38.16h-1.31z"/><path class="cls-15" d="M173.8 74.64h6.28v24.92h-6.28z"/><path class="cls-14" d="M173.8 74.64h6.28v.71h-6.28z"/><path class="cls-15" d="M182.79 74.64h6.28v24.92h-6.28zm8.99 0h6.28v24.92h-6.28zm8.99 0h6.28v24.92h-6.28zm8.99 0h6.28v24.92h-6.28zm8.99 0h6.28v24.92h-6.28zm8.99 0h6.28v24.92h-6.28zm8.99 0h6.28v24.92h-6.28zm8.99 0H252v24.92h-6.28zm8.99 0h6.28v24.92h-6.28zm8.99 0h6.28v24.92h-6.28zm8.99 0h6.28v24.92h-6.28zm8.99 0h6.28v24.92h-6.28z"/><path class="cls-14" d="M182.79 74.64h6.28v.71h-6.28zm8.99 0h6.28v.71h-6.28zm8.99 0h6.28v.71h-6.28zm8.99 0h6.28v.71h-6.28zm8.99 0h6.28v.71h-6.28zm8.99 0h6.28v.71h-6.28zm8.99 0h6.28v.71h-6.28zm8.99 0H252v.71h-6.28zm8.99 0h6.28v.71h-6.28zm8.99 0h6.28v.71h-6.28zm8.99 0h6.28v.71h-6.28zm8.99 0h6.28v.71h-6.28z"/><path class="cls-15" d="M173.8 215.94h6.28v24.92h-6.28z"/><path class="cls-14" d="M173.8 215.94h6.28v.71h-6.28z"/><path class="cls-15" d="M182.79 215.94h6.28v24.92h-6.28zm8.99 0h6.28v24.92h-6.28zm8.99 0h6.28v24.92h-6.28zm8.99 0h6.28v24.92h-6.28zm8.99 0h6.28v24.92h-6.28zm8.99 0h6.28v24.92h-6.28zm8.99 0h6.28v24.92h-6.28zm8.99 0H252v24.92h-6.28zm8.99 0h6.28v24.92h-6.28zm8.99 0h6.28v24.92h-6.28zm8.99 0h6.28v24.92h-6.28zm8.99 0h6.28v24.92h-6.28z"/><path class="cls-14" d="M182.79 215.94h6.28v.71h-6.28zm8.99 0h6.28v.71h-6.28zm8.99 0h6.28v.71h-6.28zm8.99 0h6.28v.71h-6.28zm8.99 0h6.28v.71h-6.28zm8.99 0h6.28v.71h-6.28zm8.99 0h6.28v.71h-6.28zm8.99 0H252v.71h-6.28zm8.99 0h6.28v.71h-6.28zm8.99 0h6.28v.71h-6.28zm8.99 0h6.28v.71h-6.28zm8.99 0h6.28v.71h-6.28zM170.12 356.03h121.51v1.31H170.12z"/><path class="cls-4" d="M170.12 354.08h121.51v1.93H170.12z"/><path class="cls-15" d="M173.8 359.8h6.28v24.92h-6.28z"/><path class="cls-14" d="M173.8 359.8h6.28v.71h-6.28z"/><path class="cls-15" d="M182.79 359.8h6.28v24.92h-6.28zm8.99 0h6.28v24.92h-6.28zm8.99 0h6.28v24.92h-6.28zm8.99 0h6.28v24.92h-6.28zm8.99 0h6.28v24.92h-6.28zm8.99 0h6.28v24.92h-6.28zm8.99 0h6.28v24.92h-6.28zm8.99 0H252v24.92h-6.28zm8.99 0h6.28v24.92h-6.28zm8.99 0h6.28v24.92h-6.28zm8.99 0h6.28v24.92h-6.28zm8.99 0h6.28v24.92h-6.28z"/><path class="cls-14" d="M182.79 359.8h6.28v.71h-6.28zm8.99 0h6.28v.71h-6.28zm8.99 0h6.28v.71h-6.28zm8.99 0h6.28v.71h-6.28zm8.99 0h6.28v.71h-6.28zm8.99 0h6.28v.71h-6.28zm8.99 0h6.28v.71h-6.28zm8.99 0H252v.71h-6.28zm8.99 0h6.28v.71h-6.28zm8.99 0h6.28v.71h-6.28zm8.99 0h6.28v.71h-6.28zm8.99 0h6.28v.71h-6.28z"/><path class="cls-7" d="M156.71 58.23h13.42v150.09h-13.42zm134.92 0h13.42v150.09h-13.42z"/><path class="cls-16" d="M418.31 408.89l-6.89 4.11-.12-.26q-1.4-3.17-2.75-6.34-9.17-21.25-17.57-42.8-1.4-3.54-2.75-7.09-1.24-3.17-2.45-6.36-7.57-19.92-14.59-40-1.4-3.94-2.75-7.9-8.42-24.38-16.13-49-1.4-4.43-2.75-8.86-6.83-22.1-13.14-44.33c-.37-1.27-.72-2.55-1.08-3.82q-1.4-4.92-2.75-9.85-3.62-13-7.05-26.06-4.84-18.26-9.34-36.62c-3.88-15.9-7.63-31.83-11.13-47.81q-1.93-8.82-3.75-17.65c-.29-1.4-.58-2.82-.87-4.24q-.75-3.66-1.47-7.33c.54 2.44 1.08 4.89 1.63 7.33.32 1.42.63 2.82 1 4.24q1.71 7.5 3.5 15c4 16.77 8.29 33.45 12.72 50.09q6.06 22.61 12.58 45.05 4.49 15.43 9.19 30.77c15.4 50.18 32.6 99.84 52.27 148.56q12.51 30.89 26.44 61.17zM162.93 55.3c-.2 1-.38 2-.59 2.93q-2.67 13.5-5.64 26.95c-3.46 15.76-7.16 31.47-11 47.15q-1.42 5.77-2.86 11.52-5.57 22.1-11.58 44.07-1.36 5-2.75 10-1.49 5.39-3 10.78-5.41 19-11.19 38-1.36 4.49-2.75 9-7.73 24.87-16.13 49.54-1.36 4-2.75 8Q85.14 334.9 77 356.43c-.29.77-.58 1.56-.88 2.33-.62 1.63-1.25 3.25-1.87 4.87q-8.42 21.92-17.57 43.57c-.9 2.16-1.82 4.32-2.75 6.48-.14.34-.3.68-.45 1l-6.71-4.07Q59 383.78 70 356.36c19.67-48.67 36.89-98.38 52.33-148.63q8.83-28.81 16.88-57.86 2.48-9 4.89-18c4.38-16.44 8.62-32.93 12.58-49.49q2.91-12.08 5.57-24.21c.25-.92.47-1.9.68-2.87z"/></g><path class="cls-17" d="M229.03.01L0 382.25 228.55 521l231.69-136.89L229.03.01z"/></g></g></svg>